<?xml version="1.0" encoding="UTF-8" standalone="no"?>
<!-- Created with Inkscape (http://www.inkscape.org/) -->
<svg id="svg7742" xmlns:rdf="http://www.w3.org/1999/02/22-rdf-syntax-ns#" xmlns="http://www.w3.org/2000/svg" height="21.955" width="22.005" version="1.1" xmlns:cc="http://creativecommons.org/ns#" xmlns:dc="http://purl.org/dc/elements/1.1/" viewBox="0 0 22.004866 21.954907">
 <metadata id="metadata7747">
  <rdf:RDF>
   <cc:Work rdf:about="">
    <dc:format>image/svg+xml</dc:format>
    <dc:type rdf:resource="http://purl.org/dc/dcmitype/StillImage"/>
    <dc:title/>
   </cc:Work>
  </rdf:RDF>
 </metadata>
 <g id="layer1" transform="translate(-597 -449.41)">
  <path id="rect4868" d="m492 413.36 2.8281 2.8281-0.42187 0.42188c-0.99534 0.99536-2.4062 1.75-2.4062 1.75h11v4h-11s1.4109 0.75465 2.4062 1.75l0.42187 0.42187-2.83 2.83-4.17-4.17-2.83-2.83 2.8281-2.8281z" fill="#fff"/>
  <path id="path9066" d="m601.48 451.5c-4.3966 3.1971-5.7458 9.1596-3.2188 13.973 2.5274 4.813 8.1917 7.058 13.33 5.2832 5.1382-1.7754 8.209-7.038 7.2266-12.385l-10.82-0.01v4h6.7051c-0.88415 2.9655-3.6106 4.9986-6.7051 5-3.866 0-7-3.134-7-7s3.134-7 7-7c1.856 0.001 3.6355 0.73967 4.9473 2.0527l2.8301-2.8301c-4.3078-3.6765-9.838-4.3225-14.297-1.0801z" fill="#06f"/>
 </g>
</svg>
