<?xml version="1.0" encoding="UTF-8" standalone="no"?>
<svg
   xmlns:dc="http://purl.org/dc/elements/1.1/"
   xmlns:cc="http://creativecommons.org/ns#"
   xmlns:rdf="http://www.w3.org/1999/02/22-rdf-syntax-ns#"
   xmlns:svg="http://www.w3.org/2000/svg"
   xmlns="http://www.w3.org/2000/svg"
   xmlns:sodipodi="http://sodipodi.sourceforge.net/DTD/sodipodi-0.dtd"
   xmlns:inkscape="http://www.inkscape.org/namespaces/inkscape"
   width="88.824509"
   height="89.000435"
   viewBox="0 0 88.82451 89.000436"
   id="svg12"
   version="1.1"
   inkscape:version="0.91 r13725"
   sodipodi:docname="undelete.svg">
  <metadata
     id="metadata20">
    <rdf:RDF>
      <cc:Work
         rdf:about="">
        <dc:format>image/svg+xml</dc:format>
        <dc:type
           rdf:resource="http://purl.org/dc/dcmitype/StillImage" />
        <dc:title></dc:title>
      </cc:Work>
    </rdf:RDF>
  </metadata>
  <defs
     id="defs18" />
  <sodipodi:namedview
     pagecolor="#ffffff"
     bordercolor="#666666"
     borderopacity="1"
     objecttolerance="10"
     gridtolerance="10"
     guidetolerance="10"
     inkscape:pageopacity="0"
     inkscape:pageshadow="2"
     inkscape:window-width="1920"
     inkscape:window-height="1100"
     id="namedview16"
     showgrid="true"
     inkscape:snap-bbox="true"
     inkscape:bbox-paths="true"
     inkscape:bbox-nodes="true"
     inkscape:snap-bbox-edge-midpoints="true"
     inkscape:object-paths="true"
     inkscape:snap-intersection-paths="true"
     inkscape:object-nodes="true"
     showguides="false"
     fit-margin-top="0"
     fit-margin-left="0"
     fit-margin-right="0"
     fit-margin-bottom="0"
     inkscape:zoom="1.4142136"
     inkscape:cx="120.84678"
     inkscape:cy="109.3322"
     inkscape:window-x="0"
     inkscape:window-y="1"
     inkscape:window-maximized="1"
     inkscape:current-layer="svg12"
     showborder="true">
    <inkscape:grid
       type="xygrid"
       id="grid4747"
       originx="-110.46969"
       originy="60.920821" />
  </sodipodi:namedview>
  <path
     style="opacity:1;fill:#ffffff;fill-opacity:1;stroke:none;stroke-width:4;stroke-linecap:round;stroke-linejoin:bevel;stroke-miterlimit:4;stroke-dasharray:none;stroke-dashoffset:0;stroke-opacity:1"
     d="M 44.986618,0.0026374 A 44.500008,44.5 0 0 0 19.777638,7.5006843 44.500008,44.5 0 0 0 3.3870076,61.529981 44.500008,44.5 0 0 0 53.181928,88.145216 44.500008,44.5 0 0 0 88.824508,48.000684 l -19.06641,0 a 25.500006,25.5 0 0 1 -17.0625,20.646485 25.500006,25.5 0 0 1 -31.7539,-14.388672 25.500006,25.5 0 0 1 12.27929,-32.628906 25.500006,25.5 0 0 1 12.34571,-2.607422 25.500006,25.5 0 0 1 16.94336,7.466797 l -11.50977,11.511718 35,0 0,-34.9999997 -10.03515,10.0332027 A 44.500008,44.5 0 0 0 44.986618,0.0026374 Z"
     id="path4188"
     inkscape:connector-curvature="0" />
</svg>
